# xmcd CD database file
#
# Track frame offsets:
#	150
#	31457
#	51958
#	89673
#	135689
#	141815
#
# Disc length: 3006 seconds
#
# Revision: 0
# Processed by: cddbd v1.5.1PL0 Copyright (c) Steve Scherf et al.
# Submitted via: CDex 1.50
#
DISCID=550bbc06
DTITLE=Cliffort Brown - Max Roach Quintet - Live 1955-56 [CD1]
DYEAR=2004
DGENRE=Jazz
TTITLE0=Daahoud
TTITLE1=Ghost Of A Chance
TTITLE2=Jaqui
TTITLE3=I Get A Kick Out Of You
TTITLE4=Introduction
TTITLE5=Just One Of Those Things
EXTD=YEAR: 2004
EXTT0=
EXTT1=
EXTT2=
EXTT3=
EXTT4=
EXTT5=
PLAYORDER=
